<?xml version="1.0" encoding="UTF-8"?>
<svg id="Capa_1" data-name="Capa 1" xmlns="http://www.w3.org/2000/svg" viewBox="0 0 192.04 137.47">
  <defs>
    <style>
      .cls-1 {
        fill: #35a335;
      }
    </style>
  </defs>
  <path class="cls-1" d="m83.98,45.47c-9.42-11.95-29.27-14.02-44.35-4.62-15.07,9.4-19.66,26.71-10.24,38.66,9.42,11.95,29.27,14.02,44.35,4.62,15.07-9.4,19.66-26.71,10.24-38.66Zm-33.41,31.23c-3.48,1.91-8.84,2.56-10.86.4-2.71-2.89.81-10.53,6.76-13.6,2.81-1.45,7.55-2.59,9.67-.74,2.95,2.58.4,10.68-5.57,13.95Z"/>
  <path class="cls-1" d="m62.73,70.57c8.47,26.66,42.77,39.56,76.62,28.81,33.85-10.75,55.72-35.77,47.26-62.43-.4-1.27,8.1-3.49,4.58-8.4C178.64,11.02,137-6.4,108.69,2.83c-29.51,9.62-54.9,39.61-45.96,67.74Z"/>
  <path class="cls-1" d="m27.04,58.01c-.23-.39-.78-.43-1.06-.08L.15,89.73c-.38.47.03,1.16.63,1.05l40.22-7.81c.44-.09.67-.59.43-.97l-14.39-23.99Z"/>
  <path class="cls-1" d="m84.22,74.45c-.99-.09-1.84.3-2.14.98-2.64,5.96-16.92,31.27-5.4,41.49,10.32,9.15,65.56,17.73,85.15,20.53,1.9.27,2.73-1.52,1.16-2.5-12.58-7.83-41.35-27.3-39.57-40.68,1.99-15.02-31.14-19.07-39.19-19.83Z"/>
  <ellipse class="cls-1" cx="152.73" cy="94.95" rx="10.39" ry="18.08" transform="translate(-27.01 89.09) rotate(-30)"/>
  <path class="cls-1" d="m34.24,83.62c-2.82,2.2-9.49,7.05-15.81,9.04,0,0,18.8,3.01,26.57-6.28,0,0,0,0,0,0,0,0-4.99-2.07-7.69-3.18-1.03-.43-2.19-.27-3.07.42Z"/>
  <path class="cls-1" d="m25.77,67.29c-3.51.66-11.56,2.45-17.24,5.87,0,0,10.19-16.09,22.29-15.76,0,0,0,0,0,0,0,0-1.75,5.11-2.7,7.87-.36,1.05-1.25,1.82-2.35,2.02Z"/>
  <path class="cls-1" d="m63.73,42.06s-1.73-13.97,4.37-25.08l2.18,15.41,4.97-21.14,5.76,24.72-17.27,6.09Z"/>
  <path class="cls-1" d="m79.07,22.5l8.89-18.31v13.6s4.45-12.03,10.73-17.79l-2.88,13.87"/>
</svg>