<?xml version="1.0" encoding="UTF-8"?>
<svg id="Capa_1" data-name="Capa 1" xmlns="http://www.w3.org/2000/svg" viewBox="0 0 115.52 191.35">
  <defs>
    <style>
      .cls-1 {
        fill: #35a335;
      }
    </style>
  </defs>
  <path class="cls-1" d="m88.23,154.05c-4.87-.06-9.75-.02-14.63-.02-.54,0-1.07,0-1.83,0v-1.86c0-8.21,0-16.42,0-24.63,0-3.56-1.85-5.39-5.45-5.39-2.86,0-5.71,0-8.57,0s-5.71,0-8.57,0c-3.59,0-5.44,1.83-5.45,5.39,0,8.21,0,16.42,0,24.63v1.86c-.75,0-1.29,0-1.83,0-4.88,0-9.75-.04-14.63.02-3.35.04-5.15,1.87-5.16,5.22-.03,8.91-.03,17.81,0,26.72,0,3.44,1.95,5.36,5.38,5.36,10.08,0,20.16,0,30.25,0,10.08,0,20.16,0,30.25,0,3.44,0,5.37-1.92,5.38-5.36.02-8.91.03-17.81,0-26.72-.01-3.35-1.81-5.18-5.16-5.22Z"/>
  <path class="cls-1" d="m86.6,109.8c-.48.08-1.18-.17-1.53-.51-7.33-7.23-13.58-15.31-18.83-24.17-.51-.86-.16-1.34.25-1.97,9.11-14.16,18.41-28.2,27.26-42.52,6.28-10.17,12.02-20.68,17.83-31.14,1.62-2.92,2.64-6.17,3.94-9.26l-.51-.23c-19.04,23.17-38.07,46.34-57.25,69.68C38.58,46.34,19.55,23.17.51,0l-.51.23c1.3,3.1,2.32,6.35,3.94,9.26,5.81,10.45,11.55,20.97,17.83,31.14,8.84,14.32,18.14,28.36,27.26,42.52.41.63.76,1.11.25,1.97-5.25,8.86-11.5,16.94-18.83,24.17-.35.35-1.06.59-1.53.51-8.38-1.4-15.5,1.2-21.59,6.87-7.71,7.18-7.87,17.52-4.46,24.53,3.43,7.04,10.3,9.56,17.38,6.22,7.66-3.62,12.92-9.51,15.45-17.64,1.61-5.19,2.18-10.42-.58-15.5-.14-.25,0-.76.16-1.05,5.15-8.66,12.19-15.26,21.51-19.25.28-.12.62-.18.97-.19.35.01.69.07.97.19,9.32,4,16.36,10.59,21.51,19.25.17.29.3.8.16,1.05-2.76,5.08-2.19,10.31-.58,15.5,2.53,8.13,7.78,14.02,15.45,17.64,7.07,3.34,13.95.82,17.38-6.22,3.42-7.01,3.25-17.35-4.46-24.53-6.09-5.67-13.21-8.26-21.59-6.87Zm-67.93,31.52c-3.87,1.49-7.49.33-9.76-3.14-2.74-4.2-3.27-11.9,1.97-17.18,3.4-3.43,7.54-5.12,12.28-5.28,4.85-.16,7.62,2.9,7.58,8.1-.05,7.45-5.14,14.82-12.08,17.5Zm87.94-3.14c-2.26,3.46-5.89,4.63-9.76,3.14-6.95-2.68-12.04-10.05-12.08-17.5-.03-5.2,2.74-8.26,7.58-8.1,4.74.16,8.88,1.85,12.28,5.28,5.24,5.29,4.72,12.98,1.97,17.18Z"/>
</svg>