<?xml version="1.0" encoding="UTF-8"?>
<svg id="Capa_1" data-name="Capa 1" xmlns="http://www.w3.org/2000/svg" viewBox="0 0 198.66 140.19">
  <defs>
    <style>
      .cls-1 {
        fill: #35a335;
      }
    </style>
  </defs>
  <path class="cls-1" d="m56.19,140.19c.57-4.82,1.14-9.58,1.72-14.44-19.37,4.63-38.57,9.21-57.76,13.79-.05-.11-.1-.22-.15-.33,2.48-1.76,4.95-3.52,7.43-5.27,6.48-4.58,12.97-9.15,19.44-13.75,1.72-1.23,3.41-2.51,5.03-3.87,5.9-4.93,13.14-7.25,19.98-10.35,2.44-1.11,4.88-2.22,7.38-3.16,1.3-.48,1.65-1.28,1.78-2.52.42-3.93.76-7.81.37-11.82-.75-7.8.22-15.46,3.45-22.8-17.23-10.12-34.42-20.21-51.6-30.31.05-.1.1-.21.14-.31,10.73,1.82,21.47,3.65,32.63,5.55-9.69-10.16-19.09-20.03-28.49-29.89.05-.08.11-.16.16-.24,2.14.98,4.28,1.95,6.41,2.95,3.55,1.66,7.09,3.31,10.63,4.99,10.41,4.95,20.82,9.89,31.19,14.92,1.25.6,2.35,1.64,3.31,2.66,3.6,3.84,7.12,7.75,10.65,11.66.56.62,1,.86,1.88.47,1.67-.73,3.44-1.27,5.33-1.94-.41-.35-.8-.68-1.19-1-12.69-10.36-12.64-30.11.11-40.38,10.06-8.11,24.08-5.72,31.73,5.4,7.71,11.22,5.58,26.35-4.94,35.03-.34.28-.68.56-1.14.95,1.68.58,3.22,1.19,4.8,1.61.4.1,1.09-.3,1.44-.66,3.92-4.22,7.79-8.48,11.71-12.71.52-.56,1.18-1.06,1.87-1.39,8.92-4.2,17.87-8.34,26.78-12.56,6.74-3.19,13.43-6.48,20.15-9.72.56-.27,1.14-.51,1.86-.52-9.53,10-19.07,20-28.78,30.19,11.37-1.93,22.52-3.83,33.67-5.72.06.12.12.25.18.37-17.14,10.07-34.28,20.13-51.17,30.05.98,3.95,2.17,7.79,2.85,11.71.87,5.01.55,10.06.14,15.13-.24,3.01.43,6.1.79,9.13.04.38.66.8,1.1.99,6.85,3.01,13.78,5.85,20.53,9.05,2.74,1.3,5.17,3.29,7.65,5.09,10.22,7.41,20.41,14.88,30.61,22.32.27.2.54.41.81.62-.04.12-.08.24-.12.36-19.17-4.68-38.33-9.37-57.72-14.1.58,4.92,1.16,9.78,1.75,14.75H56.19Zm28.4-112.98c-.04,2.18,1.63,3.94,3.77,3.97,2.11.03,3.93-1.74,3.94-3.85.02-2.04-1.69-3.82-3.75-3.89-2.16-.07-3.93,1.6-3.96,3.76Zm25.9-3.76c-2.18-.02-3.85,1.66-3.85,3.86,0,2.19,1.69,3.89,3.85,3.87,2.05-.02,3.8-1.75,3.84-3.8.05-2.09-1.73-3.92-3.85-3.93Z"/>
</svg>