<?xml version="1.0" encoding="UTF-8"?>
<svg id="Capa_1" data-name="Capa 1" xmlns="http://www.w3.org/2000/svg" viewBox="0 0 190.62 197.89">
  <defs>
    <style>
      .cls-1 {
        fill: #35a335;
      }
    </style>
  </defs>
  <path class="cls-1" d="m189.67,117.38c-16.17-8.19-32.34-16.37-48.5-24.57-.87-.44-1.6-.5-2.52-.12-4.52,1.82-9.06,3.57-13.6,5.34-.31.12-.62.23-1.02.38-.05-1.54,0-2.77,1.23-3.97,5.38-5.22,10.72-10.49,15.9-15.92,2.04-2.14,3.65-4.69,5.37-7.13,9.04-12.82,18.05-25.66,27.07-38.49.15-.21.29-.43.44-.66-.54-.95-.99-.58-1.5.02-4.34,4.98-8.69,9.94-13.03,14.91-6.52,7.47-13.15,14.85-19.51,22.46-3.58,4.29-8.22,7.18-12.52,10.54-1.87,1.46-3.81,2.85-5.73,4.27-.95-1.2-1.19-2.29-.59-3.79,2.71-6.77,5.28-13.6,7.87-20.43.19-.51.22-1.17.09-1.71-4.62-19.1-9.27-38.18-13.92-57.27-.1-.39-.21-.78-.33-1.24-.38.11-.68.19-1.04.29.41,3.24.8,6.42,1.2,9.59.79,6.21,1.59,12.42,2.38,18.63.72,5.62,1.44,11.24,2.15,16.85.47,3.66.95,7.32,1.39,10.98.06.46.03,1-.14,1.42-2.25,5.31-4.53,10.61-6.8,15.91-.04.09-.14.16-.16.18-6.18-4.42-12.35-6.62-18.53-6.6h0c-6.18-.02-12.35,2.18-18.53,6.6-.02-.02-.12-.09-.16-.18-2.28-5.3-4.56-10.6-6.8-15.91-.18-.42-.2-.95-.14-1.42.44-3.66.92-7.32,1.39-10.98.72-5.62,1.43-11.24,2.15-16.85.79-6.21,1.59-12.42,2.38-18.63.4-3.17.79-6.35,1.2-9.59-.35-.1-.66-.18-1.04-.29-.12.46-.24.85-.33,1.24-4.65,19.09-9.3,38.18-13.92,57.27-.13.54-.1,1.2.09,1.71,2.58,6.82,5.16,13.65,7.87,20.43.6,1.5.36,2.6-.59,3.79-1.92-1.43-3.86-2.81-5.73-4.27-4.3-3.36-8.94-6.25-12.52-10.54-6.36-7.61-12.99-14.99-19.51-22.46-4.34-4.97-8.69-9.93-13.03-14.91-.52-.59-.97-.96-1.5-.02.15.22.29.44.44.66,9.02,12.83,18.03,25.67,27.07,38.49,1.71,2.43,3.33,4.99,5.37,7.13,5.17,5.43,10.51,10.7,15.9,15.92,1.23,1.19,1.28,2.43,1.23,3.97-.4-.15-.71-.26-1.02-.38-4.54-1.77-9.08-3.52-13.6-5.34-.92-.37-1.65-.32-2.52.12-16.16,8.21-32.33,16.39-48.5,24.57-.33.16-.64.35-.95.51.11,1.06.65.94,1.34.68,3.88-1.5,7.78-2.97,11.67-4.45,12.54-4.77,25.09-9.54,37.63-14.33.66-.25,1.15-.17,1.75.18,3.84,2.28,7.7,4.53,11.55,6.79,1.91,1.12,3.82,2.25,5.91,3.48-.55.19-.88.33-1.22.43-4.75,1.37-9.51,2.72-14.25,4.13-.48.14-.98.51-1.28.92-1.41,1.92-2.75,3.89-4.12,5.85-9.71,13.89-19.42,27.79-29.13,41.68-.1.14-.18.3-.29.49.31.21.58.38,1.01.66.12-.2.19-.38.31-.52,11.78-13.47,23.56-26.95,35.37-40.4.42-.47,1.02-.87,1.62-1.08,5.47-1.93,10.96-3.8,16.45-5.69.21-.07.44-.09.87-.17-.32.49-.51.81-.72,1.1-4.97,6.75-9.96,13.5-14.91,20.27-.4.55-.72,1.23-.84,1.9-1.31,7.06-2.57,14.14-3.84,21.21-2.08,11.58-4.14,23.16-6.23,34.74-.15.83.09,1.17.94,1.12.12-.34.25-.64.34-.96,4.93-16.97,9.86-33.94,14.82-50.9.3-1.02.74-2.03,1.33-2.91,4.16-6.28,8.37-12.52,12.56-18.77.3-.44.62-.87.93-1.31.09.24.05.42,0,.58-2.29,6.22-4.57,12.43-6.88,18.64-.31.85-.53,1.62-.27,2.57,3.58,13.29,7.13,26.59,10.68,39.89,1.19,4.46,2.38,8.91,3.57,13.37.07.27.22.52.36.83.37-.14.66-.25.96-.37-1.19-7.43-2.38-14.78-3.55-22.14-1.48-9.27-2.84-18.56-4.5-27.79-.54-3.01.23-5.54,1.13-7.91,1.8,1.38,3.56,2.8,5.4,4.09.56.39.78.72.79,1.39.05,2.87,1.04,5.48,2.49,7.91.79,1.33,1.98,1.22,2.62-.18.26-.57.46-1.19.56-1.81.27-1.71.48-3.44.71-5.15h1.69c.55,0,1.11,0,1.69,0,.23,1.71.44,3.43.71,5.15.1.62.3,1.24.56,1.81.64,1.4,1.82,1.51,2.62.18,1.45-2.43,2.44-5.04,2.49-7.91.01-.68.23-1,.79-1.39,1.84-1.29,3.59-2.71,5.4-4.09.9,2.37,1.67,4.9,1.13,7.91-1.66,9.24-3.02,18.52-4.5,27.79-1.18,7.35-2.36,14.7-3.55,22.14.3.11.59.23.96.37.14-.31.29-.56.36-.83,1.2-4.45,2.38-8.91,3.57-13.37,3.55-13.3,7.1-26.6,10.68-39.89.26-.95.04-1.72-.27-2.57-2.31-6.21-4.59-12.43-6.88-18.64-.06-.17-.1-.34,0-.58.31.44.63.87.93,1.31,4.2,6.25,8.41,12.49,12.56,18.77.58.88,1.03,1.9,1.33,2.91,4.96,16.96,9.88,33.93,14.82,50.9.09.32.22.63.34.96.86.05,1.09-.28.94-1.12-2.09-11.58-4.15-23.16-6.23-34.74-1.27-7.07-2.53-14.14-3.84-21.21-.12-.66-.44-1.35-.84-1.9-4.95-6.77-9.93-13.51-14.91-20.27-.22-.29-.4-.61-.72-1.1.43.08.66.1.87.17,5.49,1.89,10.98,3.76,16.45,5.69.6.21,1.2.61,1.62,1.08,11.81,13.45,23.59,26.93,35.37,40.4.12.14.19.32.31.52.42-.28.69-.45,1.01-.66-.12-.2-.19-.35-.29-.49-9.71-13.89-19.42-27.79-29.13-41.68-1.37-1.95-2.71-3.93-4.12-5.85-.3-.41-.8-.78-1.28-.92-4.74-1.41-9.5-2.76-14.25-4.13-.34-.1-.67-.23-1.22-.43,2.09-1.23,4-2.36,5.91-3.48,3.85-2.26,7.72-4.5,11.55-6.79.59-.35,1.09-.44,1.75-.18,12.54,4.79,25.08,9.56,37.63,14.33,3.89,1.48,7.78,2.96,11.67,4.45.69.27,1.24.38,1.34-.68-.3-.16-.62-.35-.95-.51Zm-97.21,24.37c-.77,0-1.51-.72-1.53-1.49-.02-.84.74-1.58,1.58-1.55.8.03,1.48.75,1.47,1.54-.01.77-.75,1.5-1.52,1.5Zm5.7,0c-.76,0-1.51-.73-1.52-1.5-.01-.79.68-1.51,1.47-1.54.84-.03,1.59.71,1.58,1.55-.02.77-.75,1.49-1.53,1.49Z"/>
</svg>