<?xml version="1.0" encoding="UTF-8"?>
<svg id="Capa_1" data-name="Capa 1" xmlns="http://www.w3.org/2000/svg" viewBox="0 0 169.16 141.6">
  <defs>
    <style>
      .cls-1 {
        fill: #35a335;
      }
    </style>
  </defs>
  <path class="cls-1" d="m57.03,135.34v-1.68c0-15.36.1-30.72-.03-46.08-.09-10.87,2.22-21.06,7.73-30.47.06-.09.08-.21.1-.26-1.67-1.14-3.39-2.19-4.95-3.43-1.53-1.22-2.91-2.65-4.39-4.02-.47.32-.98.69-1.51,1.02-4.2,2.61-8.64,1.47-11.07-2.82-1.16-2.05-1.71-4.3-1.81-6.63-.27-6.39,1.47-12.15,5.58-17.12.47-.57.98-1.16,1.59-1.57,1.26-.85,1.92-2,2.48-3.41C56.58,4.1,72.99-3.49,88.04,1.56c11.91,4,19.94,14.61,20.53,27.13.01.26.03.51.05.86.4,0,.76.02,1.12,0,16.48-.8,30.73,4.47,42.56,15.94,9.1,8.82,14.52,19.63,16.25,32.21.4,2.87.56,5.79.57,8.69.05,17.86.03,35.72.03,53.58v1.56c-.65,0-1.17,0-1.68,0-35.01,0-70.02,0-105.03,0-2.53,0-5.07-.06-7.6.02-1.14.04-1.94-.22-2.34-1.34-.07-.2-.22-.38-.37-.64-.2.11-.43.18-.56.32-1.26,1.46-2.85,1.85-4.71,1.65-1.03-.11-2.09-.02-3.13-.02-1.69-.01-3.49.36-4.74-1.74-.55,2.03-1.94,1.75-3.23,1.74-6.26,0-12.53-.04-18.79.03-1.26.01-2.14-.31-2.8-1.36-.13-.21-.34-.38-.66-.74-.67,2.4-2.51,2.11-4.27,2.08-2.57-.05-5.14,0-7.71-.08-1.19-.04-1.89-1.22-1.37-2.21.18-.35.52-.63.84-.89,5.44-4.53,10.89-9.05,16.33-13.57,3.32-2.76,6.63-5.54,9.98-8.27.62-.5.83-1.04.8-1.81-.06-1.33-.02-2.67-.02-4.05.39-.08.7-.14,1.08-.22V3.63h3.12v106.76c.39.09.7.16,1.14.25,0,.43.07.92-.01,1.38-.46,2.69.59,4.45,2.76,6.17,6.83,5.41,13.46,11.08,20.16,16.65.14.11.29.21.68.5Zm11.27-103.96c2.92,0,5.33-2.4,5.34-5.32.01-2.9-2.41-5.34-5.31-5.35-2.99-.01-5.39,2.39-5.37,5.38.02,2.93,2.4,5.3,5.34,5.29Z"/>
</svg>