<?xml version="1.0" encoding="UTF-8"?>
<svg id="Capa_1" data-name="Capa 1" xmlns="http://www.w3.org/2000/svg" viewBox="0 0 182.19 167.1">
  <defs>
    <style>
      .cls-1 {
        fill: #35a335;
        stroke: #35a335;
        stroke-miterlimit: 10;
      }
    </style>
  </defs>
  <ellipse class="cls-1" cx="91.04" cy="127.43" rx="33.05" ry="22.93"/>
  <ellipse class="cls-1" cx="91.04" cy="137.44" rx="32.86" ry="22.93"/>
  <ellipse class="cls-1" cx="90.97" cy="145.98" rx="28.85" ry="20.62"/>
  <ellipse class="cls-1" cx="45.72" cy="64.8" rx="8.35" ry="3.81" transform="translate(-33.54 67.46) rotate(-56.71)"/>
  <ellipse class="cls-1" cx="50.7" cy="70.45" rx="2" ry="5.63" transform="translate(-36.02 74.17) rotate(-56.71)"/>
  <ellipse class="cls-1" cx="38.43" cy="62.4" rx="2" ry="5.48" transform="translate(-34.82 60.28) rotate(-56.71)"/>
  <ellipse class="cls-1" cx="52.57" cy="67.6" rx="2" ry="5.63" transform="translate(-19.83 113.33) rotate(-84.41)"/>
  <ellipse class="cls-1" cx="40.05" cy="59.94" rx="2" ry="5.63" transform="translate(-26.05 31.18) rotate(-32.74)"/>
  <ellipse class="cls-1" cx="149.36" cy="102.77" rx="8.35" ry="3.81" transform="translate(-31.93 100.9) rotate(-33.94)"/>
  <ellipse class="cls-1" cx="146.96" cy="95.63" rx="2" ry="5.63" transform="translate(-28.35 98.34) rotate(-33.94)"/>
  <ellipse class="cls-1" cx="155.15" cy="107.8" rx="2" ry="5.48" transform="translate(-33.76 104.99) rotate(-33.94)"/>
  <ellipse class="cls-1" cx="144.13" cy="97.54" rx="2" ry="5.63" transform="translate(-10.17 178.02) rotate(-61.63)"/>
  <ellipse class="cls-1" cx="152.71" cy="109.45" rx="2" ry="5.63" transform="translate(-16.63 28.06) rotate(-9.96)"/>
  <ellipse class="cls-1" cx="100.81" cy="30.47" rx="3.81" ry="8.35" transform="translate(4.86 73.87) rotate(-41.15)"/>
  <ellipse class="cls-1" cx="94.03" cy="33.74" rx="5.63" ry="2" transform="translate(1.03 70.21) rotate(-41.15)"/>
  <ellipse class="cls-1" cx="105.08" cy="24.09" rx="5.48" ry="2" transform="translate(10.11 75.1) rotate(-41.15)"/>
  <ellipse class="cls-1" cx="96.28" cy="36.31" rx="5.63" ry="2" transform="translate(27.67 113) rotate(-68.85)"/>
  <ellipse class="cls-1" cx="107.02" cy="26.3" rx="5.63" ry="2" transform="translate(-3 32.77) rotate(-17.17)"/>
  <ellipse class="cls-1" cx="12.46" cy="109.48" rx="8.35" ry="3.81" transform="translate(-36.69 10.86) rotate(-20)"/>
  <ellipse class="cls-1" cx="13.06" cy="116.98" rx="2" ry="5.63" transform="translate(-39.22 11.52) rotate(-20)"/>
  <ellipse class="cls-1" cx="8.04" cy="103.2" rx="2" ry="5.48" transform="translate(-34.81 8.98) rotate(-20)"/>
  <ellipse class="cls-1" cx="16.27" cy="115.82" rx="2" ry="5.63" transform="translate(-80.34 49.9) rotate(-47.69)"/>
  <ellipse class="cls-1" cx="10.81" cy="102.19" rx="5.63" ry="2" transform="translate(-91.88 105.89) rotate(-86.02)"/>
  <ellipse class="cls-1" cx="124.65" cy="65.92" rx="3.81" ry="8.35" transform="translate(-4.98 10.42) rotate(-4.69)"/>
  <ellipse class="cls-1" cx="117.25" cy="64.52" rx="5.63" ry="2" transform="translate(-4.89 9.81) rotate(-4.69)"/>
  <ellipse class="cls-1" cx="131.88" cy="63.32" rx="5.48" ry="2" transform="translate(-4.74 11) rotate(-4.69)"/>
  <ellipse class="cls-1" cx="117.53" cy="67.92" rx="5.63" ry="2" transform="translate(-18.1 73.52) rotate(-32.39)"/>
  <ellipse class="cls-1" cx="132.12" cy="66.26" rx="2" ry="5.63" transform="translate(25.95 169.08) rotate(-70.72)"/>
  <path class="cls-1" d="m3.54,138.99c1.09.35,21.06,9.43,21.06,9.43l-11.36,7.99,29.75,5.45-39.45-5.08,14.73-8.35-14.73-9.43Z"/>
  <path class="cls-1" d="m146.96,155.33s23.94-23.3,22.48-22.01-9.08,2.02-9.08,2.02l21.43-23.38-14.53,20.19h7.26l-27.57,23.17Z"/>
  <polygon class="cls-1" points="46.64 42.38 32.82 26.3 48.46 28.58 32.82 .26 53.17 33.74 39.66 30.47 46.64 42.38"/>
  <ellipse class="cls-1" cx="90.97" cy="117.47" rx="28.95" ry="22.93"/>
  <ellipse class="cls-1" cx="155.15" cy="33.84" rx="8.35" ry="3.81" transform="translate(-2.25 12.81) rotate(-4.69)"/>
  <ellipse class="cls-1" cx="156.55" cy="26.44" rx="2" ry="5.63" transform="translate(-1.64 12.9) rotate(-4.69)"/>
  <ellipse class="cls-1" cx="157.75" cy="41.06" rx="2" ry="5.48" transform="translate(-2.83 13.05) rotate(-4.69)"/>
  <ellipse class="cls-1" cx="153.15" cy="26.72" rx="2" ry="5.63" transform="translate(9.51 86.19) rotate(-32.39)"/>
  <ellipse class="cls-1" cx="154.81" cy="41.3" rx="5.63" ry="2" transform="translate(64.7 173.79) rotate(-70.72)"/>
</svg>