<?xml version="1.0" encoding="UTF-8"?>
<svg id="Capa_1" data-name="Capa 1" xmlns="http://www.w3.org/2000/svg" viewBox="0 0 178.25 166.34">
  <defs>
    <style>
      .cls-1 {
        fill: #35a335;
      }
    </style>
  </defs>
  <ellipse class="cls-1" cx="87.5" cy="127.17" rx="33.05" ry="22.93"/>
  <ellipse class="cls-1" cx="87.5" cy="137.18" rx="32.86" ry="22.93"/>
  <ellipse class="cls-1" cx="87.42" cy="145.72" rx="28.85" ry="20.62"/>
  <ellipse class="cls-1" cx="42.18" cy="64.54" rx="8.35" ry="3.81" transform="translate(-34.92 64.38) rotate(-56.71)"/>
  <ellipse class="cls-1" cx="47.16" cy="70.19" rx="2" ry="5.63" transform="translate(-37.4 71.09) rotate(-56.71)"/>
  <ellipse class="cls-1" cx="34.89" cy="62.14" rx="2" ry="5.48" transform="translate(-36.2 57.2) rotate(-56.71)"/>
  <ellipse class="cls-1" cx="49.03" cy="67.34" rx="2" ry="5.63" transform="translate(-22.77 109.57) rotate(-84.41)"/>
  <ellipse class="cls-1" cx="36.51" cy="59.68" rx="2" ry="5.63" transform="translate(-26.47 29.22) rotate(-32.74)"/>
  <ellipse class="cls-1" cx="145.82" cy="102.51" rx="8.35" ry="3.81" transform="translate(-32.39 98.87) rotate(-33.94)"/>
  <ellipse class="cls-1" cx="143.42" cy="95.37" rx="2" ry="5.63" transform="translate(-28.81 96.32) rotate(-33.94)"/>
  <ellipse class="cls-1" cx="151.61" cy="107.54" rx="2" ry="5.48" transform="translate(-34.21 102.97) rotate(-33.94)"/>
  <ellipse class="cls-1" cx="140.59" cy="97.28" rx="2" ry="5.63" transform="translate(-11.8 174.76) rotate(-61.63)"/>
  <ellipse class="cls-1" cx="149.17" cy="109.19" rx="2" ry="5.63" transform="translate(-16.64 27.45) rotate(-9.96)"/>
  <ellipse class="cls-1" cx="97.27" cy="30.21" rx="3.81" ry="8.35" transform="translate(4.15 71.47) rotate(-41.15)"/>
  <ellipse class="cls-1" cx="90.49" cy="33.48" rx="5.63" ry="2" transform="translate(.32 67.82) rotate(-41.15)"/>
  <ellipse class="cls-1" cx="101.54" cy="23.83" rx="5.48" ry="2" transform="translate(9.4 72.7) rotate(-41.15)"/>
  <ellipse class="cls-1" cx="92.73" cy="36.05" rx="5.63" ry="2" transform="translate(25.65 109.53) rotate(-68.85)"/>
  <ellipse class="cls-1" cx="103.48" cy="26.04" rx="5.63" ry="2" transform="translate(-3.08 31.72) rotate(-17.17)"/>
  <ellipse class="cls-1" cx="8.91" cy="109.22" rx="8.35" ry="3.81" transform="translate(-36.82 9.64) rotate(-20)"/>
  <ellipse class="cls-1" cx="9.52" cy="116.72" rx="2" ry="5.63" transform="translate(-39.35 10.3) rotate(-20)"/>
  <ellipse class="cls-1" cx="4.5" cy="102.94" rx="2" ry="5.48" transform="translate(-34.93 7.75) rotate(-20)"/>
  <ellipse class="cls-1" cx="12.73" cy="115.56" rx="2" ry="5.63" transform="translate(-81.3 47.19) rotate(-47.69)"/>
  <ellipse class="cls-1" cx="7.27" cy="101.93" rx="5.63" ry="2" transform="translate(-94.92 102.11) rotate(-86.02)"/>
  <ellipse class="cls-1" cx="121.11" cy="65.66" rx="3.81" ry="8.35" transform="translate(-4.97 10.13) rotate(-4.69)"/>
  <ellipse class="cls-1" cx="113.71" cy="64.26" rx="5.63" ry="2" transform="translate(-4.88 9.52) rotate(-4.69)"/>
  <ellipse class="cls-1" cx="128.33" cy="63.06" rx="5.48" ry="2" transform="translate(-4.73 10.71) rotate(-4.69)"/>
  <ellipse class="cls-1" cx="113.99" cy="67.66" rx="5.63" ry="2" transform="translate(-18.51 71.58) rotate(-32.39)"/>
  <ellipse class="cls-1" cx="128.58" cy="66" rx="2" ry="5.63" transform="translate(23.82 165.56) rotate(-70.72)"/>
  <path class="cls-1" d="m0,138.73c1.09.35,21.06,9.43,21.06,9.43l-11.36,7.99,29.75,5.45L0,156.52l14.73-8.35-14.73-9.43Z"/>
  <path class="cls-1" d="m143.42,155.07s23.94-23.3,22.48-22.01-9.08,2.02-9.08,2.02l21.43-23.38-14.53,20.19h7.26l-27.57,23.17Z"/>
  <polygon class="cls-1" points="43.1 42.12 29.28 26.04 44.92 28.33 29.28 0 49.63 33.48 36.12 30.21 43.1 42.12"/>
  <ellipse class="cls-1" cx="87.42" cy="117.21" rx="28.95" ry="22.93"/>
  <ellipse class="cls-1" cx="151.61" cy="33.58" rx="8.35" ry="3.81" transform="translate(-2.24 12.52) rotate(-4.69)"/>
  <ellipse class="cls-1" cx="153.01" cy="26.18" rx="2" ry="5.63" transform="translate(-1.63 12.61) rotate(-4.69)"/>
  <ellipse class="cls-1" cx="154.21" cy="40.8" rx="2" ry="5.48" transform="translate(-2.82 12.75) rotate(-4.69)"/>
  <ellipse class="cls-1" cx="149.6" cy="26.46" rx="2" ry="5.63" transform="translate(9.1 84.25) rotate(-32.39)"/>
  <ellipse class="cls-1" cx="151.27" cy="41.04" rx="5.63" ry="2" transform="translate(62.57 170.27) rotate(-70.72)"/>
</svg>