<?xml version="1.0" encoding="UTF-8"?>
<svg id="Capa_1" data-name="Capa 1" xmlns="http://www.w3.org/2000/svg" viewBox="0 0 83.67 187.5">
  <defs>
    <style>
      .cls-1 {
        fill: #35a335;
      }
    </style>
  </defs>
  <path class="cls-1" d="m83.54,187.5H.04v-1.26c0-8.88-.11-17.77.02-26.65.26-17.78,8.43-30.67,24.3-38.68.2-.1.39-.2.64-.34-.64-2.28-.98-4.6-.29-6.85.56-1.82.5-3.46-.03-5.27-.73-2.46-.36-4.94.47-7.37.16-.47.17-1.1,0-1.57-1.06-3.04-1.09-6.05-.05-9.11.16-.48.17-1.11,0-1.58-1.03-3.01-1.03-5.99,0-9,.16-.48.15-1.1,0-1.58-.97-2.94-.95-5.86.04-8.79.13-.39.21-.91.07-1.27-1.49-3.87-1.09-7.53,1.12-11.01.06-.09.08-.2.13-.34-5.29-4.62-8.71-10.41-10.15-17.24-2.55-12.08-.32-23.1,8.44-32.13,10.21-10.53,25.93-9.8,35.45,1.38,6,7.05,8.45,15.32,7.98,24.48-.39,7.69-2.94,14.57-8,20.45-.94,1.1-2.03,2.07-3.11,3.16.17.3.34.62.52.94,1.8,3.18,2.04,6.48.87,9.93-.17.51-.16,1.17,0,1.68.97,2.94.97,5.85.02,8.79-.18.55-.17,1.25,0,1.8.93,2.95.91,5.86-.1,8.79-.16.47-.14,1.09.02,1.56,1.03,3.05,1.03,6.06-.07,9.1-.17.47-.16,1.1,0,1.56,1.1,3.08,1.11,6.13,0,9.2-.13.35-.23.82-.1,1.14,1.14,2.88,1.24,5.8.42,8.77-.03.1-.02.22-.03.39.85.43,1.73.82,2.56,1.3,14.17,7.97,21.77,20.07,22.29,36.32.31,9.51.06,19.03.07,28.55,0,.22-.02.43-.03.73Zm-41.72-70.44c1.6.11,3.19.23,4.79.33.44.03.93.08,1.32-.07,3.02-1.11,5.55-2.88,7.3-5.63.2-.31.24-1,.03-1.26-.88-1.1-1.85-2.13-2.85-3.12-.17-.17-.7-.2-.95-.07-6.42,3.34-12.84,3.36-19.3.08-.29-.15-.91-.09-1.13.12-.93.9-1.78,1.89-2.65,2.85-.48.53-.42,1.01-.01,1.59,1.7,2.43,3.96,4.14,6.69,5.22.6.23,1.3.29,1.95.27,1.6-.06,3.19-.2,4.8-.32Zm10.49-44.57c.98-1.05,1.96-2.11,2.94-3.16.45-.49.4-.94.03-1.49-1.88-2.76-4.46-4.56-7.57-5.64-.43-.15-.97-.12-1.43-.03-2.63.51-5.29.7-7.89.13-1.85-.41-3.39.08-4.88.96-1.05.62-2.15,1.27-2.99,2.13-3.34,3.42-3.32,3.15.12,6.45.49.47.92.51,1.55.14,2.94-1.69,6.14-2.45,9.52-2.47,3.74-.01,7.21.94,10.61,2.99Zm-23.35-26.83c-1.27.27-1.59,2.46-.82,3.5.82,1.1,1.88,2.12,3.05,2.83,2.43,1.47,5.21,1.97,8.01,2.18,4.3.32,8.51-.08,12.37-2.16,1.14-.61,2.18-1.58,2.97-2.61.97-1.28.65-3.31-.84-3.87-.49-.18-21.92-.47-24.75.13Zm23.36,37.38c.12.11.23.21.35.32.52-.68,1.05-1.35,1.57-2.03,1.86-2.42,1.82-1.93.05-4.28-.36-.47-.83-.85-1.24-1.29-.57-.62-1.09-.69-1.93-.28-6.19,2.98-12.44,2.99-18.64.04-.91-.43-1.45-.39-2.11.32-3.21,3.46-3.21,3.07.07,6.6.47.51.88.56,1.54.21,6.54-3.51,13.1-3.49,19.65.03.23.12.46.24.68.36Zm-20.8,13.32c-.16.1-.34.17-.45.3-.95,1.04-1.92,2.06-2.81,3.16-.18.22-.14.83.05,1.07.74.97,1.58,1.87,2.39,2.79.54.61,1.06.62,1.83.23,6.2-3.15,12.43-3.12,18.63.03.69.35,1.12.33,1.65-.21,3.54-3.59,3.53-3.24.02-6.8-.5-.51-.9-.5-1.54-.17-6.34,3.28-12.7,3.26-19.05.01-.23-.12-.45-.25-.71-.4Zm-.24-2.54c.53-.29.85-.47,1.17-.64,6.1-3.07,12.26-3.13,18.36-.1,1.14.57,1.75.45,2.53-.41,2.95-3.26,2.92-2.89-.13-6.21-.57-.62-1.06-.59-1.82-.19-5.91,3.16-11.95,3.32-18.06.6-2.62-1.17-2.62-1.22-4.42,1.13-.23.29-.41.62-.65.91-.39.47-.44.91-.03,1.39,1.02,1.17,2.02,2.35,3.03,3.52Zm29.02-59.56c0-2.68-2.08-4.8-4.71-4.78-2.57.02-4.69,2.14-4.7,4.71-.01,2.64,2.13,4.8,4.74,4.78,2.59-.02,4.66-2.1,4.67-4.71Zm-33.14,4.68c2.69.01,4.79-2.04,4.79-4.7,0-2.65-2.1-4.74-4.77-4.73-2.58,0-4.68,2.12-4.69,4.71,0,2.6,2.08,4.71,4.66,4.72Zm23.24,45.55c-5.02-3.17-13.06-2.85-17.12.01,5.7,2.83,11.31,2.83,17.12-.01Zm-.37,10.59c-5.23-3.01-13.06-2.42-16.32.09,5.42,2.53,10.75,2.55,16.32-.09Zm-.03-21.35c-4.23-2.74-12.38-2.74-16.42,0,5.5,2.44,10.91,2.45,16.42,0Zm-16.43,31.95c5.61,2.56,10.89,2.57,16.46-.03-5.58-2.54-10.87-2.55-16.46.03Zm-6.83-39.79c2.07-1.7,4.14-3.4,6.13-5.04-1.44-.79-3.05-1.66-4.68-2.56-1.59,2.42-2.11,4.96-1.45,7.6Zm24.02-5.03c2.01,1.64,4.02,3.28,6.07,4.95.64-2.66.11-5.18-1.46-7.48-1.65.9-3.21,1.76-4.61,2.52Zm.86,57.37c1.63.49,3.28.98,4.98,1.49.63-2.08.75-4.05.14-5.96-1.72,1.5-3.41,2.98-5.12,4.47Zm-19.67,0c-1.71-1.48-3.39-2.94-5.1-4.42-.53,1.98-.49,3.93.21,5.91,1.68-.52,3.28-1,4.88-1.49Zm24.81-9.96c.45-1.73.49-3.55-.12-5.45-.96,1.01-1.84,1.93-2.73,2.86.97.88,1.9,1.72,2.85,2.59Zm-29.95.01c.95-.84,1.92-1.69,2.9-2.55-1.01-.91-1.96-1.76-2.9-2.61-.48,1.65-.49,3.48,0,5.16Zm29.87-10.45c.49-1.92.61-3.73,0-5.63-.94.99-1.8,1.9-2.68,2.82.85.9,1.69,1.78,2.67,2.8Zm-29.96-5.78v5.33c.95-.75,1.93-1.52,2.9-2.28-.96-1.01-1.82-1.91-2.9-3.05Zm30.2-20.98c-1.07,1.04-1.91,1.86-2.78,2.71.81.86,1.67,1.77,2.78,2.95v-5.66Zm-30.19-.03v5.17c.99-.86,1.94-1.68,2.85-2.45-.9-.86-1.74-1.67-2.85-2.72Zm.1,10.63c-.45,1.86-.51,3.56.04,5.38.91-.97,1.7-1.8,2.51-2.66-.81-.87-1.64-1.75-2.55-2.72Zm30.07.27c-.09-.01-.19-.03-.28-.04-.78.83-1.57,1.67-2.38,2.53.8.85,1.6,1.7,2.4,2.55.09-.02.18-.03.27-.05v-4.99Z"/>
</svg>