<?xml version="1.0" encoding="UTF-8"?>
<svg id="Capa_1" data-name="Capa 1" xmlns="http://www.w3.org/2000/svg" viewBox="0 0 147.25 146.15">
  <defs>
    <style>
      .cls-1 {
        fill: #35a335;
      }
    </style>
  </defs>
  <path class="cls-1" d="m89.91,25.05C71.87,4.12,46.38-.03,28.9,0,18.01.02,9.17,8.77,9.17,19.65h0c0,9.91,7.34,18.42,17.18,19.57,9.7,1.13,21.62,5.69,30.49,19.44,17.74,27.48,12.62,78.78,12.62,78.78l44.33-2.67s6.15-74.86-23.89-109.72Zm-61.53,11.35c-9.15,0-16.57-7.42-16.57-16.57S19.23,3.26,28.38,3.26s16.57,7.42,16.57,16.57-7.42,16.57-16.57,16.57Z"/>
  <ellipse class="cls-1" cx="73.62" cy="137.44" rx="73.62" ry="8.72"/>
</svg>