<?xml version="1.0" encoding="UTF-8"?>
<svg id="Capa_1" data-name="Capa 1" xmlns="http://www.w3.org/2000/svg" viewBox="0 0 173.97 154.25">
  <defs>
    <style>
      .cls-1 {
        fill: #35a335;
        stroke: #35a335;
        stroke-miterlimit: 10;
      }
    </style>
  </defs>
  <path class="cls-1" d="m173.44,68.88c-7.55-3.35-16.71-2.18-21.89-1.05-.26-4.63-.83-9.05-1.87-12.72-2.28-8.02-7.99-16.75-13.19-23.54-.21-9.58-7.58-18.79-19.04-18.79h-5.66l-5.46-11.56-.38.92c-.26,3.43-1.96,7.21-4.38,10.53l-.04.1h-.03c-3.81,5.2-9.37,9.29-13.99,9.29-7.59,0-17.01-10.79-17.65-19.61l-.51-1.23-5.46,11.56h-6.46c-11.97,0-19.48,10.04-19.02,20.07-5.43,6.93-11.7,16.23-14.11,24.73-1.04,3.68-1.61,8.09-1.87,12.72-5.18-1.13-14.34-2.3-21.89,1.05-.05.02-.04.1,0,.11,1.33.36,10.88,3.11,21.78,9.73.28,10.07,1.45,19.25,1.85,22.21.05.39.13.76.22,1.14.08.92.2,1.85.37,2.8,1.19,6.69,4.24,12.08,7.61,14.17.81.71,1.63,1.06,2.44.89.43.05.86.06,1.29-.02,4.64-.83,7.08-8.9,5.46-18.03-.02-.11-.05-.22-.07-.33,2.99,2.61,6.25,3.65,7.6,2.3,1.48-1.48.08-5.28-3.13-8.49-1.29-1.29-2.66-2.27-3.95-2.91,1.84-16.37,2.55-24.59,2.8-28.71.17-2.79,1.29-5.44,3.15-7.53,1.43-1.61,3.22-3.71,5.03-6.04l.13.1c.88,3.08,4.49,16.2,7.5,34.16.35,2.08,1.29,3.93,2.69,5.53l-.03,55.67s0,0,0,0l-12.54,4.6c-.67.25-.41,1.09.32,1.04l22.16-1.58,6.82-52.19c4.73.7,9.78.72,14.53.07l6.81,52.12,22.16,1.58c.73.05.99-.79.32-1.04l-12.54-4.6s0,0,0,0l-.03-55.16c1.65-1.72,2.77-3.73,3.15-6.04,3.06-18.28,6.74-31.53,7.54-34.31l.59-.48c1.26,1.54,2.46,2.94,3.48,4.09,1.86,2.09,2.99,4.73,3.15,7.53.24,4.12.96,12.34,2.8,28.71-1.29.64-2.67,1.63-3.95,2.91-3.21,3.21-4.61,7.01-3.13,8.49,1.34,1.34,4.61.31,7.6-2.3-.02.11-.05.22-.07.33-1.63,9.13.82,17.2,5.46,18.03.43.08.86.07,1.29.02.81.17,1.64-.18,2.44-.89,3.37-2.08,6.42-7.47,7.61-14.17.17-.95.28-1.88.37-2.8.09-.38.16-.75.22-1.14.41-2.96,1.57-12.14,1.85-22.21,10.9-6.61,20.44-9.36,21.78-9.73.05-.01.06-.09,0-.11Zm-101.14-23.21c-3.91,0-7.09-3.17-7.09-7.09s3.17-7.09,7.09-7.09,7.09,3.17,7.09,7.09-3.17,7.09-7.09,7.09Zm15.14,28.68c-3.91,0-7.09-5.6-7.09-12.5s3.17-12.5,7.09-12.5,7.09,5.6,7.09,12.5-3.17,12.5-7.09,12.5Zm14.82-28.68c-3.91,0-7.09-3.17-7.09-7.09s3.17-7.09,7.09-7.09,7.09,3.17,7.09,7.09-3.17,7.09-7.09,7.09Z"/>
</svg>