<?xml version="1.0" encoding="UTF-8"?>
<svg id="Capa_1" data-name="Capa 1" xmlns="http://www.w3.org/2000/svg" viewBox="0 0 79.2 146.85">
  <defs>
    <style>
      .cls-1 {
        fill: #35a335;
        stroke: #35a335;
        stroke-miterlimit: 10;
      }
    </style>
  </defs>
  <path class="cls-1" d="m75.34,109.28l-15.44-20.26-3.54-4.65v-18.52c0-9.16-7.42-16.58-16.58-16.58s-16.58,7.42-16.58,16.58v18.52l-3.54,4.65-15.44,20.26c-1.92,2.52-.12,6.14,3.04,6.14h65.05c3.16,0,4.96-3.62,3.04-6.14Z"/>
  <path class="cls-1" d="m39.78.5h0C26.11.5,15.02,11.24,15.02,24.49v20.54c0,.74.6,1.34,1.34,1.34h11.06c1.36,0,1.85-1.79.68-2.48-6.54-3.83-10.91-10.77-10.91-18.71,0-12.09,10.11-21.89,22.59-21.89s22.59,9.8,22.59,21.89c0,7.94-4.37,14.89-10.91,18.71-1.17.69-.68,2.48.68,2.48,4.04,0,8.8,0,11.07,0,.74,0,1.33-.6,1.33-1.34v-20.54c0-13.25-11.08-23.99-24.75-23.99Z"/>
  <path class="cls-1" d="m39.78,3.13c-12.48,0-22.59,9.09-22.59,20.3s10.11,20.3,22.59,20.3,22.59-9.09,22.59-20.3S52.26,3.13,39.78,3.13Zm-8.87,27.79c-2.53,0-4.58-1.84-4.58-4.12s2.05-4.12,4.58-4.12,4.58,1.84,4.58,4.12-2.05,4.12-4.58,4.12Zm18.6,0c-2.53,0-4.58-1.84-4.58-4.12s2.05-4.12,4.58-4.12,4.58,1.84,4.58,4.12-2.05,4.12-4.58,4.12Z"/>
  <rect class="cls-1" x="24.64" y="103.24" width="12.32" height="43.11" rx="4.66" ry="4.66"/>
  <rect class="cls-1" x="43.34" y="103.24" width="12.32" height="43.11" rx="4.66" ry="4.66"/>
  <rect class="cls-1" x="9.25" y="49.23" width="12.32" height="50.93" rx="6.16" ry="6.16" transform="translate(-4.73 148.26) rotate(-153.03)"/>
  <rect class="cls-1" x="57.8" y="49.27" width="12.32" height="50.14" rx="6.16" ry="6.16" transform="translate(-26.76 37.1) rotate(-26.97)"/>
</svg>