<?xml version="1.0" encoding="UTF-8"?>
<svg id="Capa_1" data-name="Capa 1" xmlns="http://www.w3.org/2000/svg" viewBox="0 0 111.42 112.38">
  <defs>
    <style>
      .cls-1 {
        stroke: #35a335;
        stroke-miterlimit: 10;
      }

      .cls-1, .cls-2 {
        fill: #35a335;
      }
    </style>
  </defs>
  <path class="cls-2" d="m60.96,28.46c3.34-11.49,12.18-33.83,27.6-27.21-1.69-.57-3.46-.9-5.22-.79-11.77,1.06-16.84,19.03-18.85,28.76,0,0-3.53-.76-3.53-.76h0Z"/>
  <path class="cls-2" d="m45.96,29.22C43.95,19.5,38.89,1.51,27.11.45c-1.75-.11-3.52.22-5.22.79,1.64-.71,3.4-1.2,5.23-1.24,9.65.11,15.16,10.43,18.7,18.12,1.46,3.35,2.68,6.74,3.67,10.34,0,0-3.53.76-3.53.76h0Z"/>
  <path class="cls-1" d="m55.55,23.79c-16.28,0-29.47,9.76-29.47,21.81,0,7.03,4.49,13.27,11.47,17.26v20.95c0,6.6,5.4,12,12,12h12.01c6.6,0,12-5.4,12-12v-20.95c6.97-3.99,11.47-10.23,11.47-17.26,0-12.04-13.2-21.81-29.47-21.81Zm-15.69,20.78c-4.35,0-7.87-3.52-7.87-7.87s3.52-7.87,7.87-7.87,7.87,3.52,7.87,7.87-3.52,7.87-7.87,7.87Zm18.14,10.79h-2.44s-2.44,0-2.44,0c-2.53,0-4.12-2.74-2.86-4.93l1.21-2.11,1.21-2.11c1.26-2.19,4.43-2.2,5.7,0l1.22,2.11,1.22,2.11c1.27,2.19-.31,4.93-2.84,4.94Zm12.6-10.79c-4.35,0-7.87-3.52-7.87-7.87s3.52-7.87,7.87-7.87,7.87,3.52,7.87,7.87-3.52,7.87-7.87,7.87Z"/>
  <polygon class="cls-1" points="33.82 52.72 17.3 60.37 17.85 7.68 12.7 65.72 39.46 59.92 33.82 52.72"/>
  <polygon class="cls-1" points="77.28 52.72 93.8 60.37 93.25 7.68 98.4 65.72 71.64 59.92 77.28 52.72"/>
  <polygon class="cls-1" points="40.03 82.23 5.91 69.35 .5 112.24 9.98 78.51 45.22 94.4 40.03 82.23"/>
  <polygon class="cls-1" points="71.4 82.23 105.52 69.35 110.93 112.24 101.44 78.51 66.2 94.4 71.4 82.23"/>
</svg>