<?xml version="1.0" encoding="UTF-8"?>
<svg id="Capa_1" data-name="Capa 1" xmlns="http://www.w3.org/2000/svg" viewBox="0 0 79.48 92.35">
  <defs>
    <style>
      .cls-1 {
        fill: #35a335;
      }

      .cls-1, .cls-2 {
        stroke: #35a335;
        stroke-miterlimit: 10;
      }

      .cls-2 {
        fill: none;
      }
    </style>
  </defs>
  <path class="cls-1" d="m2.79,1.65v50.23h50.23V1.65H2.79Zm25.11,46.56c-11.84,0-21.44-9.6-21.44-21.44S16.06,5.32,27.91,5.32s21.44,9.6,21.44,21.44-9.6,21.44-21.44,21.44Z"/>
  <rect class="cls-1" x=".5" y=".5" width="54.82" height="8.49"/>
  <rect class="cls-1" x=".5" y="45.22" width="54.82" height="8.49"/>
  <polyline class="cls-2" points="53.02 31.96 59.27 31.96 59.04 21.14 72.29 21.14"/>
  <rect class="cls-1" x="62.66" y="19.38" width="16.33" height="3.53"/>
  <path class="cls-1" d="m14.98,53.74v33.64s0,.02-.02.03l-9.98,4.38s-.02.06.01.06h18.85s.03-.01.03-.03v-38.08s-.01-.03-.03-.03h-8.83s-.03.01-.03.03Z"/>
  <path class="cls-1" d="m40.84,53.71v33.69s10.07,4.42,10.07,4.42c.01,0,.01.03,0,.03h-18.95v-38.14h8.89Z"/>
</svg>